<svg width="30" height="30" viewBox="0 0 30 30" fill="none" xmlns="http://www.w3.org/2000/svg">
<path d="M26.8487 29.113L16.6591 18.9235C15.8504 19.5704 14.9204 20.0826 13.8691 20.46C12.8178 20.8374 11.6991 21.0261 10.513 21.0261C7.57478 21.0261 5.08831 20.0082 3.05364 17.9725C1.01896 15.9367 0.00107912 13.4502 8.55763e-07 10.513C-0.00107741 7.57586 1.0168 5.08939 3.05364 3.05363C5.09047 1.01788 7.57694 0 10.513 0C13.4491 0 15.9362 1.01788 17.9741 3.05363C20.012 5.08939 21.0293 7.57586 21.0261 10.513C21.0261 11.6991 20.8374 12.8178 20.46 13.8691C20.0826 14.9204 19.5704 15.8504 18.9235 16.6591L29.113 26.8487L26.8487 29.113ZM10.513 17.7913C12.5348 17.7913 14.2535 17.084 15.6693 15.6693C17.085 14.2546 17.7924 12.5359 17.7913 10.513C17.7902 8.49023 17.0829 6.77202 15.6693 5.35842C14.2557 3.94482 12.5369 3.23694 10.513 3.23478C8.48915 3.23263 6.77094 3.9405 5.35842 5.35842C3.9459 6.77633 3.23802 8.49454 3.23478 10.513C3.23155 12.5315 3.93943 14.2503 5.35842 15.6693C6.77741 17.0883 8.49562 17.7956 10.513 17.7913Z" fill="black"/>
</svg>
