<svg id="图层_1" data-name="图层 1" xmlns="http://www.w3.org/2000/svg" viewBox="0 0 45.46365 7.50679"><defs><style>.cls-1{fill:#ab393b;}.cls-2{fill:#222;opacity:0.68;}.cls-3{fill:#fff;}</style></defs><rect class="cls-1" x="25.64269" width="19.82097" height="7.50679"/><rect class="cls-2" width="25.64269" height="7.50679"/><path class="cls-3" d="M16.28,3.02326A4.48573,4.48573,0,0,0,17.828,1.9415l.03451.00267a.19692.19692,0,0,0,.21813-.14342.13935.13935,0,0,0-.0687-.15224l-.68875-.35486-.02.04376a4.88364,4.88364,0,0,1-1.09732,1.5729l-.03265.03025.07677.0971Z"/><path class="cls-3" d="M15.898,5.73151a.31344.31344,0,0,0,.05382-.28721c-.06646-.2-.26016-.32762-.88726-.37074l-.031-.00192-.0342.0703.02536.02287a1.475,1.475,0,0,1,.36764.53471c.05032.101.10476.18442.2341.18093A.36973.36973,0,0,0,15.898,5.73151Z"/><path class="cls-3" d="M13.98317,5.481a.2151.2151,0,0,0,.16238-.03547.131.131,0,0,0,.04559-.0872c.00326-.04827.00318-.102-.09786-.15205l-.48465-.20318a2.15712,2.15712,0,0,1-.18014.42211,3.16373,3.16373,0,0,1-.47619.61979l-.02567.03189.06878.09115.02923-.01506a3.87347,3.87347,0,0,0,.71954-.4504A1.86241,1.86241,0,0,0,13.98317,5.481Z"/><path class="cls-3" d="M16.124,3.56378a.16005.16005,0,0,0,.17145-.10472.09673.09673,0,0,0-.00574-.06706.11269.11269,0,0,0-.06646-.06215l-.45534-.31055a.104.104,0,0,0,.07344-.10071V1.92188c.14353-.09038.21356-.17589.21356-.261,0-.04209-.01862-.10145-.11252-.148l-.55894-.2298-.23232.31132-1.11741.00089-.739-.16083V3.15774h.04792a2.03374,2.03374,0,0,0,.43324-.04277.17422.17422,0,0,0,.14354-.194V2.85979h1.29809V3.0946h.0452a2.34677,2.34677,0,0,0,.349-.03422l-.22232.28587h-.66238a.22651.22651,0,0,0,.07289-.16238c0-.17137-.215-.27026-.57747-.27026H14.1937l-.06615.074.02459.03687a.63566.63566,0,0,1,.07808.2702.16706.16706,0,0,0,.01846.05161H12.91027v.218h.04513Zm-.90649-.92285H13.91943V2.32548h1.29809Zm0-.51215H13.91943V1.81334h1.29809Z"/><path class="cls-3" d="M15.21752,4.803v.171h.0452a2.71436,2.71436,0,0,0,.43417-.043.1809.1809,0,0,0,.13028-.06777.10561.10561,0,0,0,.01419-.08331V4.16453c.13206-.078.15237-.143.15222-.20551,0-.0443-.035-.08588-.11112-.11036l-.553-.214-.14082.22377-1.13455.00044-.716-.13777V4.987s.09662-.00085.2051-.00851c.09654-.00682.24651-.02062.27606-.02671a.16656.16656,0,0,0,.13911-.14885H14.305v.774c0,.07842-.024.16837-.20914.16837l-.296-.01791-.02264.10831.05048.00709c.29746.038.31832.16806.30607.41019l-.00527.05316.05311-.0031c.53878-.02968.78343-.25386.76932-.66545-.01411-.68332-.02125-.69332-.0221-.83467ZM13.962,4.07726h1.25552V4.585H13.962Z"/><path class="cls-3" d="M17.56959,2.64093l-.02187.04412a5.33516,5.33516,0,0,1-1.43193,1.72764L16.0843,4.439l.08841.13082.03357-.01377A4.20126,4.20126,0,0,0,17.99212,3.3344c.0076-.00942.01078-.01669.01823-.026l.04722.00246a.1971.1971,0,0,0,.21813-.14346.1386.1386,0,0,0-.06382-.14673l.00163-.00235Z"/><path class="cls-3" d="M18.40466,4.4554l-.07941-.0409-.58414-.33705-.02334.03959A5.21273,5.21273,0,0,1,16.213,5.68649l-.10119.06822c-.14935.10455-.31716.20057-.48264.3018l-.04467.02629.084.122.03055-.00774A4.85532,4.85532,0,0,0,18.2125,4.75c.01257.00089.03281.00066.04273.00107a.197.197,0,0,0,.21813-.14346A.13942.13942,0,0,0,18.40466,4.4554Z"/><path class="cls-3" d="M2.67056,2.85208l-.09174-.03689L1.9587,4.1928c-.05048.11653-.12756.2512-.2224.2512a2.43976,2.43976,0,0,1-.34646-.02126l-.04428-.00886-.04219.11149.03816.0124c.29187.12719.43564.30349.44262.48483a1.63494,1.63494,0,0,1-.06289.41292,1.50652,1.50652,0,0,0-.0656.334.3659.3659,0,0,0,.41114.40849.39931.39931,0,0,0,.40586-.451,2.5313,2.5313,0,0,0-.0656-.37437,1.97611,1.97611,0,0,1-.06289-.4798,5.98549,5.98549,0,0,1,.07243-.74877C2.46964,3.74636,2.67056,2.85208,2.67056,2.85208Z"/><path class="cls-3" d="M2.06044,2.104a.26522.26522,0,0,0,.25605.20026h.00264a.38271.38271,0,0,0,.38454-.40273c.012-.28887-.27381-.48469-.9348-.60519L1.7125,1.28675l-.08135.09084.0518.05607A2.0391,2.0391,0,0,1,2.06044,2.104Z"/><path class="cls-3" d="M1.86278,3.48137a.23343.23343,0,0,0,.031-.00221.38446.38446,0,0,0,.38283-.40627c.01505-.30791-.28358-.53874-.88873-.68672l-.03017-.00752-.09879.09885.03769.04292a1.81967,1.81967,0,0,1,.33576.73411C1.68652,3.43663,1.78221,3.48137,1.86278,3.48137Z"/><path class="cls-3" d="M9.30958,3.96784a.31821.31821,0,0,0,.25372-.366c-.0597-.30779-.48178-.37552-.69564-.40433-.02148.02421-.0722.088-.0722.088a1.34438,1.34438,0,0,1,.17967.3146,1.25506,1.25506,0,0,0,.08476.28007A.20938.20938,0,0,0,9.30958,3.96784Z"/><path class="cls-3" d="M11.028,5.04726c.16331,0,.179-.07547.179-.122a.12046.12046,0,0,0-.06118-.10839l-.47736-.24333-.195.25574h-.45231v-.581l.89292-.00087c.16338,0,.179-.08375.179-.13026a.10765.10765,0,0,0-.0611-.10013l-.47737-.24333-.1951.25574h-.34654a2.4598,2.4598,0,0,0,.37632-.4622.26877.26877,0,0,0,.16145-.05432.15369.15369,0,0,0,.05955-.13652.11554.11554,0,0,0-.10368-.10412c-.0977-.02142-.54878-.11358-.54878-.11358l-.00356.05449a3.56861,3.56861,0,0,1-.15021.74094.68826.68826,0,0,1-.0283.07531H8.57353v.21885H9.375v.581H8.37v.21885L9.375,5.0478V6.14858H9.423a1.91366,1.91366,0,0,0,.44293-.04612.20084.20084,0,0,0,.15517-.21228V5.04759Z"/><path class="cls-3" d="M4.40941,5.54422a.19984.19984,0,0,0,.02908-.11735C4.42631,5.0751,4.43337,3.9098,4.43337,3.9098a.25719.25719,0,0,0,.14066-.231.16521.16521,0,0,0-.10631-.1421l-.41959-.16032-.16944.22889V2.68881H4.5379a.30867.30867,0,0,0,.129-.02326.11529.11529,0,0,0,.0646-.09957.15243.15243,0,0,0-.0646-.11364l-.41051-.24712-.2086.26561h-.169V1.67292c.07708-.02526.183-.08667.1789-.19814-.00155-.04188-.02272-.10434-.12679-.109L3.27525,1.2903V2.47083H2.49748v.21775l.77777.00023V3.609L2.741,3.45925V4.60892c0,.41025,0,.81175.00178,1.2126l-.00178.047h.047a1.5,1.5,0,0,0,.41819-.0638.19683.19683,0,0,0,.15951-.19182V5.316h.46519v.342h.04521a2.35908,2.35908,0,0,0,.41975-.06064A.2207.2207,0,0,0,4.40941,5.54422Zm-.57856-.44708H3.36566V3.84247h.46519Z"/><path class="cls-3" d="M6.51248,1.64357,6.01558,1.441l-.19867.26636H5.46339l-.65905-.20824v1.8767a8.99494,8.99494,0,0,1-.11345,1.63558,2.78456,2.78456,0,0,1-.15074.508,4.47753,4.47753,0,0,1-.3277.63026l-.03281.04161.09259.0788.02753-.02216A2.80388,2.80388,0,0,0,5.38228,4.425h.43463V5.50607c0,.07841-.024.16835-.20913.16835L5.27123,5.659l-.02279.10828.07514.01c.30567.03323.32669.14782.301.391l-.00527.05318.05312-.0031c.53877-.0297.8046-.25386.7904-.66545-.01512-.7319-.02217-1.54886-.02217-2.49783V2.01394c.12942-.0762.16819-.14786.16819-.23337A.14475.14475,0,0,0,6.51248,1.64357ZM5.81691,4.18483H5.39205c.02481-.25875.03722-.55248.03722-.87367V3.165h.38764Zm0-1.23873H5.42927V1.92622h.38764Z"/><path class="cls-3" d="M12.51688,1.96505l-.69867-.43956-.33445.452-1.4935-.00074.01334-.305a.22808.22808,0,0,0,.18114-.21055c-.0017-.04471-.02435-.11132-.13523-.1163l-.2818-.022L9.35215,1.2903v.00017L9.3499,1.2903l-.02078.51491-.00768.17225L7.16308,1.97657v.21884H9.31183l-.02877.65682-.86539.002L7.50761,2.6265V6.27579h.047a1.03766,1.03766,0,0,0,.42618-.05157.25113.25113,0,0,0,.19316-.25058V3.07174h3.20157v2.201l-.00015.03305v.17878c0,.07841-.02955.16835-.21472.16835l-.35678-.01286-.02265.10833.05048.0071c.35143.04075.37144.21043.34577.45365l-.00527.05318.05312-.00311c.52009-.029.81189-.27784.82274-.65121.00155-.05388-.00512-.20218-.00612-.25086l.00093-.008c-.00566-.43384-.00016-2.16756-.00016-2.16756.15773-.09171.23481-.1843.23481-.28354,0-.06246-.04514-.11253-.13648-.14886l-.65564-.24855-.19851.35222-1.33477.0006.02846-.65656,2.40875-.00107c.06173.00134.18782-.02658.18782-.13068A.10837.10837,0,0,0,12.51688,1.96505Z"/><path class="cls-3" d="M20.36971,1.74335c.14888-.03454.22418-.09834.22418-.18872,0-.03678-.015-.10234-.11965-.12981l-.73187-.18209-.008.04873A6.78567,6.78567,0,0,1,18.6497,4.03705l-.03381.05013.10763.10038.03606-.03214a4.99844,4.99844,0,0,0,.58282-.568l.031-.03544V6.234h.04784a1.407,1.407,0,0,0,.40052-.05513.22353.22353,0,0,0,.174-.22486V2.633A5.57844,5.57844,0,0,0,20.36971,1.74335Z"/><path class="cls-3" d="M24.3164,5.35034a2.56844,2.56844,0,0,1-1.18534-.79888,2.7837,2.7837,0,0,0,.62035-.2847.258.258,0,0,0,.24426-.09315.12944.12944,0,0,0-.04877-.189L23.47551,3.708c.02923-.00707.10173-.02369.132-.03478a.19143.19143,0,0,0,.12787-.2184V2.81771l-.00024-.01718c.12888-.07609.16765-.145.16765-.233a.14786.14786,0,0,0-.09631-.137L23.31825,2.228l-.19743.26449-.95651-.00088a1.74287,1.74287,0,0,0,.51885-.2707c.19091.00161.30366-.10013.31072-.198a.13646.13646,0,0,0-.06227-.12155l-.456-.30072L22.44107,1.579l-.225.29327H21.5963l.00713-.02038L21.716,1.684c.14447-.01882.20293-.09879.21115-.1838a.13625.13625,0,0,0-.1181-.14006l-.68494-.15949-.01063.04209a3.75634,3.75634,0,0,1-.67122,1.48716c-.07421.10538-.30607.34391-.30607.34391l.09453.09646.03016-.01816A1.99227,1.99227,0,0,0,20.642,2.86v.93952h.0487a2.11455,2.11455,0,0,0,.41913-.04652.21089.21089,0,0,0,.13562-.21222V3.52125h.24543a2.81041,2.81041,0,0,1-1.24032.91791l-.043.015.06607.12671.06862-.01916a3.9481,3.9481,0,0,0,1.44031-.64158l.05009.07018A3.69208,3.69208,0,0,1,20.25083,5.158l-.04552.01351.05956.11917.03637-.00975a4.72382,4.72382,0,0,0,1.70449-.808c.00086.01018.01706.12027.01706.13047a4.50594,4.50594,0,0,1-1.7604,1.1674L20.2278,5.78l.05382.12295.04257-.00886a4.981,4.981,0,0,0,.87183-.24911,3.6668,3.6668,0,0,0,.858-.44695.46639.46639,0,0,1-.09483.34866.52173.52173,0,0,1-.399.18568l-.25194-.00969-.02784.1004.04963.00709a.39312.39312,0,0,1,.37012.37726l-.00349.05226.05312-.00442a.961.961,0,0,0,.96387-1.01672q.00129-.05847-.00155-.11973a2.81675,2.81675,0,0,0-.04653-.42226c.00551-.00156.07088-.00921.13183-.02536a.8075.8075,0,0,0,.11988-.04292,1.83253,1.83253,0,0,0,.72791,1.3248l.04164.0297.02389-.04563a.68941.68941,0,0,1,.5687-.42873l.02761-.00013.04653-.1446ZM22.524,2.70959h.6088v.57152h-.82236A2.24276,2.24276,0,0,0,22.524,2.70959Zm-.87811.57152h-.40044V2.70959h.64416A1.78619,1.78619,0,0,1,21.64593,3.28111Zm.27536-.78948h-.58724l-.15858-.04387a4.44029,4.44029,0,0,0,.28358-.35753h.744Zm.6692,1.91036a1.45989,1.45989,0,0,0-.5677-.689.901.901,0,0,0,.14687-.19176h.96318v.21353h.04521c.03761-.00176.12089-.00924.16431-.01411A1.98789,1.98789,0,0,1,22.59049,4.402Z"/><path class="cls-3" d="M29.55034,3.06338c.04165.18829.12538.22772.23658.22772a.37378.37378,0,0,0,.35437-.44321c-.05041-.40679-.33125-.72046-.85714-1.08614l-.02481-.01728-.06825.04482.01683.035a3.17992,3.17992,0,0,1,.2777.84018S29.51444,2.88374,29.55034,3.06338Z"/><path class="cls-3" d="M32.29149,1.94643l-.65339-.2376-.0092.05541a6.67877,6.67877,0,0,1-.44652,1.47691l-.01638.04038.08153.04522.02243-.021A5.23883,5.23883,0,0,0,32.11989,2.282l.01249-.022c.01268-.00053.03233-.00291.04235-.00359a.1969.1969,0,0,0,.2014-.16606A.13945.13945,0,0,0,32.29149,1.94643Z"/><path class="cls-3" d="M29.19134,3.92814a.61992.61992,0,0,0-.1842-.38516,2.0354,2.0354,0,0,0-.51355-.36135v-.313h.73317c.039,0,.14121-.00831.16259-.048a.14482.14482,0,0,0-.05006-.18192c-.031-.02453-.48469-.36949-.48469-.36949l-.25106.38145h-.10995V1.80893c.12582-.04873.20169-.10073.21266-.2157a.143.143,0,0,0-.12582-.13873l-.71706-.08395s.00554,1.02762.00554,1.19686V2.6507H27.036v.218h.68471a9.30053,9.30053,0,0,1-.68544,2.4395l-.02216.04291.08928.04652.023-.02791a5.28292,5.28292,0,0,0,.74349-1.28932c-.00089.61981.00266,2.20012.00266,2.20012h.04519a1.45573,1.45573,0,0,0,.41258-.05344c.09525-.02924.16735-.04724.16425-.23016V3.426a1.79014,1.79014,0,0,1,.13324.65215.23413.23413,0,0,0,.241.22772A.34065.34065,0,0,0,29.19134,3.92814Z"/><path class="cls-3" d="M32.37663,3.57133c0-.04209-.01861-.10145-.1143-.14886L31.62956,3.181l-.19394.34512h-.46014V1.805c.14532-.07665.21355-.14665.21355-.22019a.09987.09987,0,0,0-.10368-.109h-.00088L30.32953,1.387V3.52614H29.1967V3.745h2.29917v.88862H29.291v.21886h2.20491V5.699H29.06954v.1967h2.42633V6.2805h.04519a1.6565,1.6565,0,0,0,.45633-.061.20019.20019,0,0,0,.1657-.218V3.85266C32.30663,3.76272,32.37663,3.67013,32.37663,3.57133Z"/><path class="cls-3" d="M33.39951,2.62734a.49.49,0,0,0,.4907-.51238V2.09548h3.34968l-.26288.41459.10678.08293.023-.00841a2.3844,2.3844,0,0,0,.6796-.338.3453.3453,0,0,0,.25822-.06031.13279.13279,0,0,0,.04164-.09969.15937.15937,0,0,0-.09514-.13774l-.61144-.40759-.24876.33627h-1.315a.28784.28784,0,0,0,.20852-.26221.29433.29433,0,0,0-.09352-.24622.97187.97187,0,0,0-.74256-.11093l-.02482.00265L35.1175,1.353l.0204.023c.169.11558.13632.4673.32584.50151H33.86268a.76342.76342,0,0,0-.13019-.323l-.01419-.01906h-.08592l-.00621.03767a.6444.6444,0,0,1-.27993.41046.3623.3623,0,0,0-.23356.33451A.28116.28116,0,0,0,33.39951,2.62734Z"/><path class="cls-3" d="M38.29015,5.40489A3.70538,3.70538,0,0,1,36.27043,4.79h.8291V4.7903l.95814-.00039c.04691-.00665.18874-.00754.18874-.1193,0-.03145-.01512-.05987-.06118-.08937,0,0-.51218-.31817-.5363-.33422l-.23767.32274-1.40712.00134V4.39166a.22941.22941,0,0,0,.16665-.21321.1168.1168,0,0,0-.12578-.109h-.00093l-.46162-.03557.05428-.019c.12143-.05052.2393-.10412.35182-.15951a2.47455,2.47455,0,0,1,.89354.4662.39394.39394,0,0,0,.302.07747.385.385,0,0,0,.27831-.37076c.015-.288-.26528-.47151-.93782-.59335a4.4401,4.4401,0,0,0,.39958-.48025l1.13339-.00043c.04692-.00665.18867-.0266.18867-.12983a.11024.11024,0,0,0-.06111-.10144s-.5121-.31817-.53622-.33418l-.24.32576H35.37805a.90766.90766,0,0,0,.101-.16614.19124.19124,0,0,0,.19883-.17889c.00263-.08569-.04327-.11707-.0898-.1237-.0525-.00749-.70426-.10279-.70426-.10279a3.79241,3.79241,0,0,1-.31389.57152h-1.345v.24012h1.19085c-.12407.15817-.26133.319-.41021.47982l-.06382.06911.09391.00665a11.1198,11.1198,0,0,1,1.17836.1524,10.18317,10.18317,0,0,1-1.99444.50551l-.04513.00841.03722.18874.03808-.00089a7.77037,7.77037,0,0,0,2.06593-.2375V4.5711H33.13679V4.79h1.5384A5.02988,5.02988,0,0,1,33.12152,5.9861l-.03637.01906.07266.18252.039-.01018a4.79552,4.79552,0,0,0,2.11882-1.07121v1.171h.04963a2.09135,2.09135,0,0,0,.48317-.053.19762.19762,0,0,0,.15571-.20574V4.90824A2.51449,2.51449,0,0,0,37.78425,6.135l.04079.00975.01326-.04032c.0939-.29506.241-.46475.436-.50373l.03009-.00576.03722-.18607ZM34.73878,3.31535a2.3057,2.3057,0,0,0,.45673-.36066h.88168a3.52987,3.52987,0,0,1-.3864.377A6.43267,6.43267,0,0,0,34.73878,3.31535Z"/><path class="cls-3" d="M39.32695,5.35085c0,.09481-.07443.1719-.2286.23525l-.04962.02083.37615.5649c.01134.017.05542.09357.11383.08226a.218.218,0,0,0,.17989-.21786,8.58062,8.58062,0,0,0,.96651-.85327l.02659-.02747-.07765-.10439-.68242.3121V3.702c.07709-.02525.21355-.08329.21355-.20424,0-.03677-.01507-.10278-.12671-.13025l-.71157-.0669Z"/><path class="cls-3" d="M43.89146,2.15974l-.55357-.3629-.03633-.01817-.22684.29036h-.73489a.30829.30829,0,0,0,.17246-.27219c-.01817-.27225-.28133-.42648-.78949-.47184h-.01806l-.10887.0998.01816.03633a1.09645,1.09645,0,0,1,.18142.46269c.01817.05444.0545.13612.13613.14521h-.853a1.77653,1.77653,0,0,0-.08163-.22684L40.98791,1.815H40.87l-.00908.03632a.99109.99109,0,0,1-.26317.5353l-.48988-.27219-.16337.25408h-.28122s.1452-.39923.19051-.55351a.2035.2035,0,0,0,.19969-.19051.13048.13048,0,0,0-.0999-.127l-.76213-.13612v.05443a5.06325,5.06325,0,0,1-.0453.78036,7.967,7.967,0,0,1-.52633,1.76024l-.00908.03627.09082.05444.02713-.01817a4.90233,4.90233,0,0,0,.55347-.78938,3.467,3.467,0,0,0,.30857-.65325h.3901l-.127.617.09979.05444s.41734-.44459.52633-.58071a.28763.28763,0,0,0,.21775.363.27571.27571,0,0,0,.1905-.02725c-.00908,0-.00908,3.26645-.00908,3.26645h.04541A1.57342,1.57342,0,0,0,41.36,6.21557a.24067.24067,0,0,0,.1905-.22683v-.118h1.3156v.40831h.04541a1.57279,1.57279,0,0,0,.43551-.06352.207.207,0,0,0,.16337-.21775c0-.19964-.01817-.989-.01817-.989.14521-.09072.21776-.19057.21776-.28128a.12623.12623,0,0,0-.127-.13612L42.966,4.40089l-.18143.28128H41.55045v-.617h1.16142v.28128h.04542a1.54973,1.54973,0,0,0,.41734-.04541c.10887-.0272.16326-.05444.16326-.22684-.00909-.16331,0-.88009,0-.88009.1452-.08169.21775-.16332.20867-.245,0-.07255-.01817-.10888-.10877-.14515l-.25408-.09979a1.23665,1.23665,0,0,0,.52622-.245c.21775,0,.26316-.09072.26316-.1724A.12118.12118,0,0,0,43.89146,2.15974ZM42.86605,4.89992v.77122h-1.3156V4.89992Zm-.15418-1.05254H41.55045V3.07616h1.16142Zm.32663-1.20673-.21775-.09076-.17245.30852h-.989l-.56254-.03628a.41074.41074,0,0,0,.07265-.28132.94245.94245,0,0,0-.03633-.254h2.05968Z"/></svg>