<svg width="13" height="14" viewBox="0 0 13 14" fill="none" xmlns="http://www.w3.org/2000/svg">
<path d="M10.3966 2.31787H2.6692C1.86675 2.31787 1.21289 2.97173 1.21289 3.77418V8.44033C1.21289 9.24279 1.86675 9.89664 2.6692 9.89664H3.11501L3.29334 12.0068L5.13602 9.89664H10.3966C11.199 9.89664 11.8529 9.24279 11.8529 8.44033V3.77418C11.8529 2.97173 11.199 2.31787 10.3966 2.31787ZM3.85803 6.68681C3.47166 6.68681 3.14473 6.35988 3.14473 5.97351C3.14473 5.58714 3.47166 5.26022 3.85803 5.26022C4.2444 5.26022 4.57133 5.58714 4.57133 5.97351C4.60105 6.35988 4.27412 6.68681 3.85803 6.68681ZM6.53289 6.68681C6.14652 6.68681 5.81959 6.35988 5.81959 5.97351C5.81959 5.58714 6.14652 5.26022 6.53289 5.26022C6.91926 5.26022 7.24619 5.58714 7.24619 5.97351C7.24619 6.35988 6.91926 6.68681 6.53289 6.68681ZM9.17803 6.68681C8.79166 6.68681 8.46473 6.35988 8.46473 5.97351C8.46473 5.58714 8.79166 5.26022 9.17803 5.26022C9.5644 5.26022 9.89133 5.58714 9.89133 5.97351C9.92105 6.35988 9.59412 6.68681 9.17803 6.68681Z" fill="#A3A3A3"/>
</svg>
