<svg width="16" height="16" viewBox="0 0 16 16" fill="none" xmlns="http://www.w3.org/2000/svg">
<path d="M14.4984 8.00257C14.4999 7.72567 14.3889 7.52174 14.3825 7.51382C13.5018 5.83248 11.8609 4.75341 11.7927 4.70976C10.6168 3.93615 9.33934 3.5426 8.00158 3.54022V3.53149C6.66065 3.53387 5.38477 3.92663 4.20731 4.70184C4.14065 4.74547 2.49664 5.82456 1.61908 7.50511C1.61273 7.51383 1.50006 7.71696 1.50165 7.99386H1.50006C1.4969 8.27315 1.61115 8.47866 1.6175 8.48661C2.49664 10.1679 4.13908 11.247 4.20573 11.2907C5.38321 12.0655 6.65908 12.4574 7.99841 12.4606V12.4685C9.33936 12.4669 10.6168 12.0734 11.7943 11.2986C11.8625 11.2549 13.5034 10.1758 14.3841 8.49532C14.3904 8.48659 14.5031 8.28188 14.4999 8.00257H14.4984ZM8 10.4377C6.6543 10.4377 5.5625 9.34669 5.5625 8.0002C5.5625 6.65372 6.65429 5.56272 8 5.56272C9.34725 5.56272 10.4375 6.65372 10.4375 8.0002C10.4375 9.34669 9.34725 10.4377 8 10.4377Z" fill="#A3A3A3"/>
</svg>
