<svg width="16" height="16" viewBox="0 0 16 16" fill="none" xmlns="http://www.w3.org/2000/svg">
<path d="M10.0348 3.08533C10.9582 2.94233 11.8253 3.23329 12.5271 3.91722C13.2402 4.61243 13.582 5.52847 13.4847 6.48933C13.3884 7.43865 12.8846 8.37613 12.0368 9.20252C11.8003 9.43325 11.1645 10.0561 10.252 10.951C9.84172 11.3536 9.40501 11.7818 8.96501 12.2141L8.5371 12.6337L8.36715 12.8007C8.26939 12.8967 8.13786 12.9505 8.00084 12.9505C7.86383 12.9505 7.73229 12.8967 7.63454 12.8007L6.15722 11.3487L5.84509 11.0428C5.21845 10.4293 4.59171 9.81587 3.96489 9.20252C3.11705 8.37613 2.61352 7.43892 2.51726 6.48933C2.41991 5.52847 2.76147 4.61243 3.47483 3.91722C4.17664 3.23329 5.04373 2.94261 5.96719 3.08533C6.6525 3.19121 7.34771 3.53249 8.00112 4.07727C8.6548 3.53276 9.34974 3.19121 10.035 3.08533H10.0348Z" fill="#A3A3A3"/>
</svg>
