<svg width="13" height="14" viewBox="0 0 13 14" fill="none" xmlns="http://www.w3.org/2000/svg">
<path d="M11.5617 5.91656L7.59734 1.62681C7.44942 1.47889 7.18316 1.47889 7.03524 1.62681C6.94648 1.71556 6.9169 1.8339 6.9169 1.95224V4.25983C3.63302 4.25983 1 6.89285 1 10.1471C1 10.9459 1.17751 11.7447 1.50294 12.4843C1.97629 10.0288 4.31346 8.16498 6.9169 8.16498V10.4726C6.88731 10.5909 6.94648 10.7092 7.03524 10.798C7.0944 10.8868 7.21274 10.9163 7.33108 10.9163C7.44942 10.9163 7.56776 10.8572 7.62693 10.7684L11.5617 6.53784C11.6504 6.44908 11.68 6.36033 11.68 6.24199C11.68 6.12365 11.6208 6.00531 11.5617 5.91656Z" fill="#A3A3A3"/>
</svg>
