<svg width="24" height="24" viewBox="0 0 24 24" fill="none" xmlns="http://www.w3.org/2000/svg">
<path d="M20.7245 5.27519H16.0345V4.38519C16.0307 3.75501 15.7793 3.15157 15.3345 2.70519C15.1128 2.48282 14.8494 2.30648 14.5594 2.18634C14.2693 2.06621 13.9584 2.00464 13.6445 2.00519H10.3845C10.0705 2.00464 9.75956 2.06621 9.46952 2.18634C9.17947 2.30648 8.91606 2.48282 8.69445 2.70519C8.25326 3.15319 8.0055 3.75643 8.00445 4.38519V5.27519H3.31445C3.11554 5.27519 2.92478 5.35421 2.78412 5.49486C2.64347 5.63551 2.56445 5.82628 2.56445 6.02519C2.56445 6.2241 2.64347 6.41487 2.78412 6.55552C2.92478 6.69617 3.11554 6.77519 3.31445 6.77519H4.73445V18.5352C4.73037 18.991 4.81665 19.443 4.98829 19.8653C5.15993 20.2875 5.41353 20.6715 5.73445 20.9952C6.38878 21.6363 7.26839 21.9953 8.18445 21.9952H15.8045C16.7205 21.9953 17.6001 21.6363 18.2544 20.9952C18.5754 20.6715 18.829 20.2875 19.0006 19.8653C19.1723 19.443 19.2585 18.991 19.2544 18.5352V6.77519H20.6845C20.8834 6.77519 21.0741 6.69617 21.2148 6.55552C21.3554 6.41487 21.4345 6.2241 21.4345 6.02519C21.4345 5.82628 21.3554 5.63551 21.2148 5.49486C21.0741 5.35421 20.8834 5.27519 20.6845 5.27519H20.7245ZM9.52445 4.38519C9.52449 4.26977 9.5475 4.15551 9.59214 4.04906C9.63678 3.94262 9.70215 3.84612 9.78445 3.76519C9.94977 3.60169 10.172 3.50852 10.4045 3.50519H13.6645C13.7815 3.50446 13.8975 3.52708 14.0056 3.57173C14.1138 3.61637 14.212 3.68214 14.2945 3.76519C14.458 3.93051 14.5511 4.1527 14.5545 4.38519V5.27519H9.55445L9.52445 4.38519ZM10.8545 16.9952C10.8545 17.2604 10.7491 17.5148 10.5616 17.7023C10.374 17.8898 10.1197 17.9952 9.85445 17.9952C9.58924 17.9952 9.33488 17.8898 9.14735 17.7023C8.95981 17.5148 8.85445 17.2604 8.85445 16.9952V11.5652C8.85445 11.3 8.95981 11.0456 9.14735 10.8581C9.33488 10.6705 9.58924 10.5652 9.85445 10.5652C10.1197 10.5652 10.374 10.6705 10.5616 10.8581C10.7491 11.0456 10.8545 11.3 10.8545 11.5652V16.9952ZM15.2145 16.9952C15.2145 17.2604 15.1091 17.5148 14.9216 17.7023C14.734 17.8898 14.4797 17.9952 14.2145 17.9952C13.9492 17.9952 13.6949 17.8898 13.5073 17.7023C13.3198 17.5148 13.2145 17.2604 13.2145 16.9952V11.5652C13.2145 11.3 13.3198 11.0456 13.5073 10.8581C13.6949 10.6705 13.9492 10.5652 14.2145 10.5652C14.4797 10.5652 14.734 10.6705 14.9216 10.8581C15.1091 11.0456 15.2145 11.3 15.2145 11.5652V16.9952Z" fill="#A6A6A6"/>
</svg>
