<svg width="22" height="16" viewBox="0 0 22 16" fill="none" xmlns="http://www.w3.org/2000/svg">
<path d="M20.5937 7.28743C20.8974 7.71303 21.0493 7.92683 21.0493 8.24154C21.0493 8.55724 20.8974 8.77005 20.5937 9.19565C19.229 11.1099 15.7432 15.235 11.0586 15.235C6.37293 15.235 2.88818 11.1089 1.52345 9.19565C1.21973 8.77005 1.06787 8.55624 1.06787 8.24154C1.06787 7.92583 1.21973 7.71303 1.52345 7.28743C2.88818 5.37321 6.37393 1.24805 11.0586 1.24805C15.7442 1.24805 19.229 5.37421 20.5937 7.28743Z" stroke="#808080" stroke-width="1.2" stroke-linecap="round" stroke-linejoin="round"/>
<path d="M14.0559 8.24233C14.0559 7.44742 13.7402 6.68507 13.1781 6.12298C12.616 5.56089 11.8536 5.24512 11.0587 5.24512C10.2638 5.24512 9.50147 5.56089 8.93939 6.12298C8.3773 6.68507 8.06152 7.44742 8.06152 8.24233C8.06152 9.03724 8.3773 9.79959 8.93939 10.3617C9.50147 10.9238 10.2638 11.2395 11.0587 11.2395C11.8536 11.2395 12.616 10.9238 13.1781 10.3617C13.7402 9.79959 14.0559 9.03724 14.0559 8.24233Z" stroke="#808080" stroke-width="1.2" stroke-linecap="round" stroke-linejoin="round"/>
</svg>
